<svg xmlns="http://www.w3.org/2000/svg" width="32" height="32" viewBox="0 0 32 32" fill="none">
  <rect width="32" height="32" rx="8" fill="#000666"/>
  <path d="M8 7.5C8 6.67 8.67 6 9.5 6H14c1.1 0 2 .9 2 2v16.5a.5.5 0 0 1-.5.5c-.83 0-1.5-.67-1.5-1.5V23H9.5C8.67 23 8 22.33 8 21.5V7.5z" fill="#bdc2ff"/>
  <path d="M24 7.5C24 6.67 23.33 6 22.5 6H18c-1.1 0-2 .9-2 2v16.5a.5.5 0 0 0 .5.5c.83 0 1.5-.67 1.5-1.5V23h4.5c.83 0 1.5-.67 1.5-1.5V7.5z" fill="#dee0ff"/>
  <path d="M16 8v16" stroke="#000666" stroke-width="0.5" stroke-linecap="round" opacity="0.3"/>
  <path d="M10.5 10h3M10.5 12.5h2.5" stroke="#000666" stroke-width="1" stroke-linecap="round" opacity="0.3"/>
  <path d="M19 10h2.5M19 12.5h2" stroke="#000666" stroke-width="1" stroke-linecap="round" opacity="0.3"/>
</svg>
